# File created by Blade
# Date/Time:  Wed Jan 21 19:14:05 2015
#---------------------------------------------------------
:version 1.10
:name HOM
:units
  mass 1.0
  length 1.000000
  angle deg
:documentation
     Acclaim Skeleton File
:root
   axis xyz
   order TX TY TZ RX RY RZ
   position 0.000000 0.000000 0.000000
   orientation 0 0 0
:bonedata
   begin
      id 1
      name RightUpLeg_dum
      direction -1.000000 0.000000 0.000000
      length 3.693983
      axis 0.0 0.0 0.0 xyz
   end
   begin
      id 2
      name LeftUpLeg_dum
      direction 1.000000 0.000000 0.000000
      length 3.693983
      axis 0.0 0.0 0.0 xyz
   end
   begin
      id 3
      name Spine_dum
      direction 0.000000 1.000000 0.000000
      length 2.392956
      axis 0.0 0.0 0.0 xyz
   end
   begin
      id 4
      name RightUpLeg
      direction 0.000000 -1.000000 0.000000
      length 15.795667
      axis 0.0 0.0 0.0 xyz
      dof rx ry rz
   end
   begin
      id 5
      name RightLeg
      direction 0.000000 -1.000000 0.000000
      length 14.766989
      axis 0.0 0.0 0.0 xyz
      dof rx ry rz
   end
   begin
      id 6
      name RightFoot
      direction 0.000000 -0.258819 0.965926
      length 4.962790
      axis 15.0 0.0 0.0 xyz
      dof rx ry rz
   end
   begin
      id 7
      name RightToeBase
      direction 0.000000 0.000000 1.000000
      length 2.952750
      axis 0.0 0.0 0.0 xyz
      dof rx ry rz
   end
   begin
      id 8
      name LeftUpLeg
      direction 0.000000 -1.000000 0.000000
      length 15.795667
      axis 0.0 0.0 0.0 xyz
      dof rx ry rz
   end
   begin
      id 9
      name LeftLeg
      direction 0.000000 -1.000000 0.000000
      length 14.766989
      axis 0.0 0.0 0.0 xyz
      dof rx ry rz
   end
   begin
      id 10
      name LeftFoot
      direction 0.000000 -0.258819 0.965926
      length 4.962790
      axis 15.0 0.0 0.0 xyz
      dof rx ry rz
   end
   begin
      id 11
      name LeftToeBase
      direction 0.000000 0.000000 1.000000
      length 2.952750
      axis 0.0 0.0 0.0 xyz
      dof rx ry rz
   end
   begin
      id 12
      name Spine
      direction 0.000000 1.000000 0.000000
      length 0.000000
      axis 0.0 0.0 0.0 xyz
      dof rx ry rz
   end
   begin
      id 13
      name Spine_dum1
      direction 0.000000 1.000000 0.000000
      length 13.207411
      axis 0.0 0.0 0.0 xyz
   end
   begin
      id 14
      name Spine_dum2
      direction 0.000000 1.000000 0.000000
      length 13.207411
      axis 0.0 0.0 0.0 xyz
   end
   begin
      id 15
      name Spine_dum3
      direction 0.000000 1.000000 0.000000
      length 19.250100
      axis 0.0 0.0 0.0 xyz
   end
   begin
      id 16
      name RightShoulder
      direction -1.000000 0.000000 0.000000
      length 8.140465
      axis 0.0 0.0 90.0 xyz
      dof rx ry rz
   end
   begin
      id 17
      name RightArm
      direction -1.000000 0.000000 0.000000
      length 10.649840
      axis 0.0 0.0 90.0 xyz
      dof rx ry rz
   end
   begin
      id 18
      name RightForeArm
      direction -1.000000 0.000000 0.000000
      length 8.304624
      axis 0.0 0.0 90.0 xyz
      dof ry rz rx
   end
   begin
      id 19
      name RightHand
      direction -1.000000 0.000000 0.000000
      length 0.000000
      axis 0.0 0.0 90.0 xyz
      dof rx ry rz
   end
   begin
      id 20
      name RightHand_dum1
      direction -1.000000 0.000000 0.000000
      length 3.937000
      axis 0.0 0.0 90.0 xyz
   end
   begin
      id 21
      name RightHand_dum2
      direction 0.000000 0.000000 0.000000
      length 0.000000
      axis 0.0 0.0 90.0 xyz
   end
   begin
      id 22
      name RightHandThumb1
      direction 0.000000 0.000000 1.000000
      length 3.937000
      axis 0.0 0.0 90.0 xyz
      dof rx rz ry
   end
   begin
      id 23
      name LeftShoulder
      direction 1.000000 0.000000 0.000000
      length 8.140465
      axis 0.0 0.0 -90.0 xyz
      dof rx ry rz
   end
   begin
      id 24
      name LeftArm
      direction 1.000000 0.000000 0.000000
      length 10.649840
      axis 0.0 0.0 -90.0 xyz
      dof rx ry rz
   end
   begin
      id 25
      name LeftForeArm
      direction 1.000000 0.000000 0.000000
      length 8.304624
      axis 0.0 0.0 -90.0 xyz
      dof ry rz rx
   end
   begin
      id 26
      name LeftHand
      direction 1.000000 0.000000 0.000000
      length 0.000000
      axis 0.0 0.0 -90.0 xyz
      dof rx ry rz
   end
   begin
      id 27
      name LeftHand_dum1
      direction 1.000000 0.000000 0.000000
      length 3.937000
      axis 0.0 0.0 -90.0 xyz
   end
   begin
      id 28
      name LeftHand_dum2
      direction 0.000000 0.000000 0.000000
      length 0.000000
      axis 0.0 0.0 -90.0 xyz
   end
   begin
      id 29
      name LeftHandThumb1
      direction 0.000000 0.000000 1.000000
      length 3.937000
      axis 0.0 0.0 -90.0 xyz
      dof rx rz ry
   end
   begin
      id 30
      name Head
      direction 0.000000 1.000000 0.000000
      length 4.527550
      axis 0.0 0.0 0.0 xyz
      dof rx ry rz
   end
:hierarchy
   begin
      root RightUpLeg_dum LeftUpLeg_dum Spine_dum
      RightUpLeg_dum RightUpLeg
      LeftUpLeg_dum LeftUpLeg
      Spine_dum Spine
      RightUpLeg RightLeg
      RightLeg RightFoot
      RightFoot RightToeBase
      LeftUpLeg LeftLeg
      LeftLeg LeftFoot
      LeftFoot LeftToeBase
      Spine Spine_dum1 Spine_dum2 Spine_dum3
      Spine_dum1 RightShoulder
      Spine_dum2 LeftShoulder
      Spine_dum3 Head
      RightShoulder RightArm
      RightArm RightForeArm
      RightForeArm RightHand
      RightHand RightHand_dum1 RightHand_dum2
      RightHand_dum2 RightHandThumb1
      LeftShoulder LeftArm
      LeftArm LeftForeArm
      LeftForeArm LeftHand
      LeftHand LeftHand_dum1 LeftHand_dum2
      LeftHand_dum2 LeftHandThumb1
   end

# File created by Blade
# Date/Time:  Wed Jan 21 19:13:57 2015
# Frame Rate: 120.000 fps
#------------------------------------------------------
:FULLY-SPECIFIED
:DEGREES
290
root -3.955473 34.002174 -2.474625 20.452863 69.462662 -77.138219
RightUpLeg 0.714895 -4.103501 -32.027928
RightLeg 83.815473 -0.000000 -0.000000
RightFoot 36.118647 -18.081639 14.742629
RightToeBase 43.413651 -0.000000 -0.000000
LeftUpLeg -93.551112 18.623476 1.844586
LeftLeg 0.107149 -0.000000 -0.000000
LeftFoot -5.429256 -2.817986 8.542078
LeftToeBase 1.397856 -0.000000 -0.000000
Spine -66.567173 -4.725579 17.728270
RightShoulder -32.499177 -1.595689 -29.996129
RightArm -16.075398 -37.632358 59.010529
RightForeArm -3.445031 0.000000 0.514997
RightHand 3.949163 -0.000000 23.023696
RightHandThumb1 -24.326973 -0.000000 -32.862282
LeftShoulder -17.327255 -7.530669 51.618142
LeftArm 36.364436 -24.788001 -21.379483
LeftForeArm 15.401221 -0.000000 6.841885
LeftHand -18.586818 -0.000000 9.437810
LeftHandThumb1 -26.253704 0.000000 33.147579
Head -22.320558 22.048042 30.438363
291
root -3.969530 34.020727 -2.471017 20.765246 69.590646 -77.239819
RightUpLeg 1.165918 -4.281471 -32.029527
RightLeg 82.994319 -0.000000 -0.000000
RightFoot 36.090708 -18.221157 14.886640
RightToeBase 43.284810 -0.000000 -0.000000
LeftUpLeg -94.364579 18.190485 0.469018
LeftLeg 0.028262 -0.000000 -0.000000
LeftFoot -5.071885 -2.820547 8.890212
LeftToeBase 0.959050 -0.000000 -0.000000
Spine -66.898877 -4.760601 17.877716
RightShoulder -32.624639 -1.418825 -30.205474
RightArm -16.003699 -38.086759 58.646223
RightForeArm -3.709990 -0.000000 0.456683
RightHand 4.112722 -0.000000 23.133993
RightHandThumb1 -24.326973 -0.000000 -32.862282
LeftShoulder -17.484150 -7.788412 51.851286
LeftArm 36.616647 -25.030622 -20.976199
LeftForeArm 15.134168 -0.000000 6.865099
LeftHand -18.853538 -0.000000 10.014526
LeftHandThumb1 -26.253704 0.000000 33.147579
Head -22.445843 22.268152 30.582549
292
root -3.987957 34.041394 -2.470528 20.909437 69.694900 -77.493976
RightUpLeg 1.582152 -4.390568 -31.974299
RightLeg 82.217101 -0.000000 -0.000000
RightFoot 36.123989 -18.351213 14.939815
RightToeBase 43.156521 -0.000000 -0.000000
LeftUpLeg -95.077099 17.746387 -0.773897
LeftLeg -0.156514 -0.000000 0.000000
LeftFoot -4.601818 -2.608869 9.253970
LeftToeBase 0.500333 -0.000000 -0.000000
Spine -67.168894 -4.739412 18.066555
RightShoulder -32.815889 -1.401207 -30.341252
RightArm -15.675942 -38.425347 58.149471
RightForeArm -3.983887 -0.000000 0.427341
RightHand 4.140748 0.000000 23.242143
RightHandThumb1 -24.326973 -0.000000 -32.862282
LeftShoulder -17.621392 -8.010822 52.077709
LeftArm 36.756587 -25.346809 -20.623518
LeftForeArm 15.241218 0.000000 7.044622
LeftHand -18.976007 -0.000000 10.406036
LeftHandThumb1 -26.253704 0.000000 33.147579
Head -22.601175 22.525680 30.679467
293
root -4.005382 34.057598 -2.475601 21.280059 69.783071 -77.436208
RightUpLeg 2.076741 -4.497510 -32.037627
RightLeg 81.447243 -0.000000 -0.000000
RightFoot 36.096359 -18.525402 14.959527
RightToeBase 43.187676 -0.000000 -0.000000
LeftUpLeg -95.714499 17.225177 -2.198970
LeftLeg -0.361459 -0.000000 0.000000
LeftFoot -3.985551 -2.605818 9.004149
LeftToeBase -0.286421 -0.000000 0.000000
Spine -67.374947 -4.743478 18.119836
RightShoulder -32.986686 -1.303482 -30.502462
RightArm -15.533030 -38.723973 57.718664
RightForeArm -4.295138 0.000000 0.448093
RightHand 4.213007 -0.000000 23.262565
RightHandThumb1 -24.326973 -0.000000 -32.862282
LeftShoulder -17.761020 -8.250365 52.291692
LeftArm 36.978520 -25.594448 -20.269556
LeftForeArm 15.251503 -0.000000 7.140360
LeftHand -19.182812 -0.000000 11.037248
LeftHandThumb1 -26.253704 0.000000 33.147579
Head -22.790360 22.747334 30.774339
294
root -4.028674 34.077764 -2.476987 21.296999 69.798787 -77.790554
RightUpLeg 2.434620 -4.487587 -31.931781
RightLeg 80.735882 -0.000000 -0.000000
RightFoot 36.101945 -18.641878 14.905803
RightToeBase 43.183239 -0.000000 -0.000000
LeftUpLeg -96.327325 16.814997 -3.375568
LeftLeg -0.599987 -0.000000 0.000000
LeftFoot -3.539539 -2.225314 9.180763
LeftToeBase -0.621590 -0.000000 0.000000
Spine -67.553608 -4.629355 18.289559
RightShoulder -33.194598 -1.189550 -30.698552
RightArm -15.330144 -39.274899 57.392419
RightForeArm -4.427045 -0.000000 0.293282
RightHand 4.260033 -0.000000 23.373024
RightHandThumb1 -24.326973 -0.000000 -32.862282
LeftShoulder -17.890103 -8.527815 52.560006
LeftArm 37.068882 -25.825409 -19.932138
LeftForeArm 15.335999 -0.000000 7.359660
LeftHand -19.273816 -0.000000 11.431362
LeftHandThumb1 -26.253704 0.000000 33.147579
Head -23.004523 22.983919 30.841400
295
root -4.049645 34.093053 -2.477550 21.358522 69.738872 -78.017821
RightUpLeg 2.810058 -4.394102 -31.893504
RightLeg 80.031580 -0.000000 -0.000000
RightFoot 36.138705 -18.847923 14.935059
RightToeBase 43.219209 -0.000000 -0.000000
LeftUpLeg -96.823877 16.445987 -4.621164
LeftLeg -0.891001 -0.000000 0.000000
LeftFoot -3.297312 -1.875772 9.497537
LeftToeBase -0.475699 -0.000000 0.000000
Spine -67.652052 -4.476995 18.328160
RightShoulder -33.398293 -1.228009 -30.747325
RightArm -15.030614 -39.467426 56.853535
RightForeArm -4.650141 -0.000000 0.288035
RightHand 4.274056 -0.000000 23.582940
RightHandThumb1 -24.326973 -0.000000 -32.862282
LeftShoulder -17.998849 -8.766138 52.825361
LeftArm 37.244884 -26.076852 -19.648141
LeftForeArm 15.511580 -0.000000 7.543731
LeftHand -19.393143 -0.000000 11.904436
LeftHandThumb1 -26.253704 0.000000 33.147579
Head -23.225269 23.213039 30.943903
296
root -4.070895 34.102024 -2.479263 21.478311 69.610616 -78.124900
RightUpLeg 3.214069 -4.259546 -31.934193
RightLeg 79.358008 -0.000000 -0.000000
RightFoot 36.109274 -18.869020 14.923256
RightToeBase 43.302442 -0.000000 -0.000000
LeftUpLeg -97.196427 16.139578 -5.806530
LeftLeg -1.248717 -0.000000 0.000000
LeftFoot -3.052921 -1.521481 9.498957
LeftToeBase -0.499476 -0.000000 0.000000
Spine -67.695202 -4.292958 18.338127
RightShoulder -33.505767 -1.217761 -30.863679
RightArm -14.894888 -39.603518 56.444746
RightForeArm -4.969324 -0.000000 0.277786
RightHand 4.331759 -0.000000 23.634856
RightHandThumb1 -24.326973 -0.000000 -32.862282
LeftShoulder -18.031888 -8.952824 53.045123
LeftArm 37.284990 -26.300703 -19.185968
LeftForeArm 15.331244 -0.000000 7.737859
LeftHand -19.580654 -0.000000 12.244137
LeftHandThumb1 -26.253704 0.000000 33.147579
Head -23.411168 23.444883 31.036299
297
root -4.092618 34.109460 -2.477913 21.397547 69.394760 -78.407093
RightUpLeg 3.560929 -4.046838 -31.935128
RightLeg 78.705165 -0.000000 -0.000000
RightFoot 36.173341 -18.938571 15.036458
RightToeBase 43.292214 -0.000000 -0.000000
LeftUpLeg -97.576850 15.960187 -7.036108
LeftLeg -1.520021 -0.000000 0.000000
LeftFoot -2.908894 -1.417418 9.169657
LeftToeBase -0.672650 -0.000000 0.000000
Spine -67.684035 -4.037272 18.349701
RightShoulder -33.534784 -1.274136 -30.877657
RightArm -14.790707 -39.580655 55.996210
RightForeArm -5.326340 -0.000000 0.325950
RightHand 4.319061 -0.000000 23.682177
RightHandThumb1 -24.326973 -0.000000 -32.862282
LeftShoulder -18.086255 -9.111167 53.302296
LeftArm 37.424526 -26.591046 -18.871629
LeftForeArm 15.327507 -0.000000 7.965024
LeftHand -19.814834 -0.000000 12.580618
LeftHandThumb1 -26.253704 0.000000 33.147579
Head -23.522913 23.615086 31.206829
